<?xml version="1.0" encoding="utf-8"?>
<!-- Generator: Adobe Illustrator 27.2.0, SVG Export Plug-In . SVG Version: 6.00 Build 0)  -->
<svg version="1.1" id="Layer_1" xmlns="http://www.w3.org/2000/svg" xmlns:xlink="http://www.w3.org/1999/xlink" x="0px" y="0px"
	 viewBox="0 0 500 500" style="enable-background:new 0 0 500 500;" xml:space="preserve">
<style type="text/css">
	.st0{fill-rule:evenodd;clip-rule:evenodd;fill:#516E62;}
</style>
<path class="st0" d="M257.79,14.56c77.48,0,140.88,63.39,140.88,140.88v189.12c0,77.48-63.39,140.88-140.88,140.88
	c-77.48,0-140.88-63.39-140.88-140.88V155.44C116.91,77.96,180.3,14.56,257.79,14.56 M257.79,0c85.49,0,155.44,69.95,155.44,155.44
	v189.12c0,85.49-69.95,155.44-155.44,155.44c-85.49,0-155.44-69.95-155.44-155.44V155.44C102.35,69.95,172.29,0,257.79,0z"/>
<path class="st0" d="M151.19,223.97v-45.92l146.66,147.3c44.86,45.05,3.12,107.98-57.54,102.45c26.17-27.58,39.8-75.21,9.98-104.96
	L151.19,223.97z M130.88,369.05h20.5V251.43l75.41,75.41c23.17,23.17,30.21,59.93-4.47,89.87c-24.27-19.81-28.84-44.9-17.58-74.23
	l-14.37-14.37c-8.28,13.14-13.1,28.75-11.58,46.74c1.51,17.89,8.55,36.65,25.87,52.96c14.81,13.94,34.95,21.89,58.02,20.16
	c52.21-3.92,81.52-51.54,70.67-100.56c-3.21-14.52-11.57-25.22-20.86-34.5L131.1,132.34L130.88,369.05z"/>
<path class="st0" d="M364.38,276.03v45.92l-146.66-147.3c-44.86-45.05-3.12-107.98,57.54-102.45
	c-26.17,27.58-39.8,75.21-9.98,104.96L364.38,276.03z M384.69,130.95h-20.5v117.63l-75.41-75.41
	c-23.17-23.17-30.21-59.93,4.47-89.87c24.27,19.81,28.84,44.9,17.58,74.23l14.37,14.37c8.28-13.14,13.1-28.75,11.58-46.74
	c-1.51-17.89-8.55-36.65-25.87-52.96c-14.81-13.94-34.95-21.89-58.02-20.16c-52.22,3.92-81.52,51.54-70.67,100.56
	c3.21,14.52,11.57,25.22,20.86,34.5l181.39,180.57L384.69,130.95z"/>
</svg>
